<?xml version="1.0" encoding="UTF-8"?>
<svg width="288" height="288" viewBox="0 0 288 288" fill="none" xmlns="http://www.w3.org/2000/svg">
<path fill-rule="evenodd" clip-rule="evenodd" d="M145 33.347C145.687 33.347 146.333 33.6619 146.765 34.2048L236.765 146.205C237.244 146.81 237.418 147.604 237.231 148.351C237.044 149.098 236.521 149.705 235.815 149.995L146.815 189.995C145.977 190.344 145.023 190.344 144.185 189.995L55.1853 149.995C54.4793 149.705 53.9559 149.098 53.769 148.351C53.5821 147.604 53.7558 146.81 54.2353 146.205L144.235 34.2048C144.667 33.6619 145.313 33.347 146 33.347H145ZM146 40.4093L62.5964 145.012L145 182.333L227.404 145.012L146 40.4093V40.4093Z" fill="currentColor"/>
<path fill-rule="evenodd" clip-rule="evenodd" d="M55.1853 149.995L144.185 189.995C145.023 190.344 145.977 190.344 146.815 189.995L235.815 149.995C236.521 149.705 237.044 149.098 237.231 148.351C237.418 147.604 237.244 146.81 236.765 146.205L227.404 145.012L146 182.333L62.5964 145.012L53.769 148.351C53.5821 147.604 53.7558 146.81 54.2353 146.205C53.9559 149.098 54.4793 149.705 55.1853 149.995Z" fill="currentColor"/>
<path fill-rule="evenodd" clip-rule="evenodd" d="M145 189.347C145.687 189.347 146.333 189.662 146.765 190.205L236.765 254.205C237.244 254.81 237.418 255.604 237.231 256.351C237.044 257.098 236.521 257.705 235.815 257.995L146.815 257.995C145.977 258.344 145.023 258.344 144.185 257.995L55.1853 257.995C54.4793 257.705 53.9559 257.098 53.769 256.351C53.5821 255.604 53.7558 254.81 54.2353 254.205L144.235 190.205C144.667 189.662 145.313 189.347 146 189.347H145ZM146 196.409L62.5964 253.012L145 254.333L227.404 253.012L146 196.409V196.409Z" fill="currentColor"/>
</svg>